<?xml version="1.0" encoding="UTF-8"?>
<svg width="42px" height="42px" viewBox="0 0 42 42" version="1.1" xmlns="http://www.w3.org/2000/svg" xmlns:xlink="http://www.w3.org/1999/xlink">
    <!-- Generator: Sketch 51.3 (57544) - http://www.bohemiancoding.com/sketch -->
    <title>Catalog</title>
    <desc>Created with Sketch.</desc>
    <defs></defs>
    <g id="Catalog" stroke="none" stroke-width="1" fill="none" fill-rule="evenodd">
        <g transform="translate(5.000000, 6.000000)" fill="#F07B1F" fill-rule="nonzero">
            <path d="M3,3 L3,10.125 L11,10.125 L11,3 L3,3 Z M0,0 L14,0 L14,13.125 L0,13.125 L0,0 Z" id="Rectangle-20"></path>
            <path d="M3,19.875 L3,27 L11,27 L11,19.875 L3,19.875 Z M0,16.875 L14,16.875 L14,30 L0,30 L0,16.875 Z" id="Rectangle-20-Copy-2"></path>
            <path d="M21,3 L21,10.125 L29,10.125 L29,3 L21,3 Z M18,0 L32,0 L32,13.125 L18,13.125 L18,0 Z" id="Rectangle-20-Copy"></path>
            <path d="M21,19.875 L21,27 L29,27 L29,19.875 L21,19.875 Z M18,16.875 L32,16.875 L32,30 L18,30 L18,16.875 Z" id="Rectangle-20-Copy-3"></path>
        </g>
    </g>
</svg>