<?xml version="1.0" encoding="UTF-8"?>
<svg width="40px" height="40px" viewBox="0 0 40 40" version="1.1" xmlns="http://www.w3.org/2000/svg" xmlns:xlink="http://www.w3.org/1999/xlink">
    <!-- Generator: Sketch 51.3 (57544) - http://www.bohemiancoding.com/sketch -->
    <title>ic/compaire_v2</title>
    <desc>Created with Sketch.</desc>
    <defs>
        <path d="M2,9 C3.1045695,9 4,9.8954305 4,11 L4,25 C4,26.1045695 3.1045695,27 2,27 C0.8954305,27 1.3527075e-16,26.1045695 0,25 L0,11 C-1.3527075e-16,9.8954305 0.8954305,9 2,9 Z M11,13 C12.1045695,13 13,13.8954305 13,15 L13,25 C13,26.1045695 12.1045695,27 11,27 C9.8954305,27 9,26.1045695 9,25 L9,15 C9,13.8954305 9.8954305,13 11,13 Z M20,8 C21.1045695,8 22,8.8954305 22,10 L22,25 C22,26.1045695 21.1045695,27 20,27 C18.8954305,27 18,26.1045695 18,25 L18,10 C18,8.8954305 18.8954305,8 20,8 Z M2,0 C3.1045695,-2.02906125e-16 4,0.8954305 4,2 L4,4 C4,5.1045695 3.1045695,6 2,6 C0.8954305,6 1.3527075e-16,5.1045695 0,4 L0,2 C-1.3527075e-16,0.8954305 0.8954305,2.02906125e-16 2,0 Z" id="path-1"></path>
    </defs>
    <g id="ic/compaire_v2" stroke="none" stroke-width="1" fill="none" fill-rule="evenodd">
        <g id="Color/light_gray" transform="translate(9.000000, 6.000000)">
            <mask id="mask-2" fill="white">
                <use xlink:href="#path-1"></use>
            </mask>
            <use id="Mask" fill="#CFCFCF" xlink:href="#path-1"></use>
            <g mask="url(#mask-2)" fill="#CFCFCF" id="Rectangle-3-Copy-2">
                <g transform="translate(-9.000000, -6.000000)">
                    <rect x="0" y="0" width="40" height="40"></rect>
                </g>
            </g>
        </g>
    </g>
</svg>