<?xml version="1.0" encoding="UTF-8"?>
<svg width="42px" height="42px" viewBox="0 0 42 42" version="1.1" xmlns="http://www.w3.org/2000/svg" xmlns:xlink="http://www.w3.org/1999/xlink">
    <!-- Generator: Sketch 51.3 (57544) - http://www.bohemiancoding.com/sketch -->
    <title>Configurator</title>
    <desc>Created with Sketch.</desc>
    <defs></defs>
    <g id="Configurator" stroke="none" stroke-width="1" fill="none" fill-rule="evenodd">
        <g id="Group-17" transform="translate(1.000000, 9.000000)" fill="#F07B1F">
            <g id="Group-16">
                <rect id="Rectangle-6" x="0" y="4" width="11" height="3"></rect>
                <path d="M15,3 C14.4477153,3 14,3.44771525 14,4 L14,7 C14,7.55228475 14.4477153,8 15,8 L16,8 C16.5522847,8 17,7.55228475 17,7 L17,4 C17,3.44771525 16.5522847,3 16,3 L15,3 Z M15,0 L16,0 C18.209139,-4.05812251e-16 20,1.790861 20,4 L20,7 C20,9.209139 18.209139,11 16,11 L15,11 C12.790861,11 11,9.209139 11,7 L11,4 C11,1.790861 12.790861,4.05812251e-16 15,0 Z" id="Rectangle" fill-rule="nonzero"></path>
                <path d="M27,15 C26.4477153,15 26,15.4477153 26,16 L26,19 C26,19.5522847 26.4477153,20 27,20 L28,20 C28.5522847,20 29,19.5522847 29,19 L29,16 C29,15.4477153 28.5522847,15 28,15 L27,15 Z M27,12 L28,12 C30.209139,12 32,13.790861 32,16 L32,19 C32,21.209139 30.209139,23 28,23 L27,23 C24.790861,23 23,21.209139 23,19 L23,16 C23,13.790861 24.790861,12 27,12 Z" id="Rectangle-Copy" fill-rule="nonzero"></path>
                <rect id="Rectangle-6-Copy" x="22" y="4" width="18" height="3"></rect>
                <rect id="Rectangle-6-Copy-3" x="0" y="16" width="23" height="3"></rect>
                <rect id="Rectangle-6-Copy-2" x="34" y="16" width="6" height="3"></rect>
            </g>
        </g>
    </g>
</svg>