<svg version="1.1" id="Capa_1" xmlns="http://www.w3.org/2000/svg" xmlns:xlink="http://www.w3.org/1999/xlink" x="0px" y="0px"
	 viewBox="0 0 203.045 203.045" fill="currentColor"  xml:space="preserve">
<path d="M101.523,203.045c-0.044,0-0.088-0.001-0.132-0.004c-2.087-0.008-4.172-0.201-6.228-0.58
	c-0.04-0.007-0.079-0.014-0.118-0.022c-0.693-0.13-1.383-0.281-2.068-0.454c-3.191-0.804-5.729-1.647-7.542-2.506
	c-5.705-2.703-20.788-15.818-33.136-32.463c-12.214-16.462-26.519-50.559-27.381-71.55c-0.787-19.164,2.068-66.284,4.428-73.069
	c2.472-7.104,7.054-10.008,25.808-16.351c18.461-6.245,45.259-6.055,46.39-6.043c1.096-0.014,27.889-0.202,46.351,6.043
	c18.754,6.343,23.337,9.246,25.809,16.351c2.359,6.785,5.214,53.904,4.427,73.069c-0.863,20.991-15.167,55.088-27.38,71.55
	c-12.35,16.645-27.433,29.76-33.137,32.463c-1.814,0.859-4.352,1.702-7.542,2.506c-0.684,0.172-1.373,0.323-2.065,0.454
	c-0.041,0.009-0.082,0.017-0.123,0.022c-2.054,0.379-4.14,0.571-6.226,0.58C101.611,203.044,101.567,203.045,101.523,203.045z
	 M97.163,198.633l4.36,0.403l4.362-0.403c1.202-6.539,3.109-17.578,3.204-20.725c0.055-1.83-0.512-3.476-1.113-5.218
	c-0.697-2.021-1.418-4.111-1.163-6.537c0.236-2.234,1.852-4.41,3.605-6.156h-17.79c1.753,1.746,3.369,3.922,3.605,6.156
	c0.256,2.425-0.465,4.516-1.163,6.537c-0.601,1.742-1.168,3.388-1.113,5.218C94.064,181.43,96.36,194.244,97.163,198.633z
	 M101.154,4.002c-3.388,0-28.064,0.199-44.72,5.833c-18.2,6.155-21.481,8.615-23.311,13.876c-2.036,5.854-5.023,51.788-4.209,71.591
	c0.82,19.963,14.971,53.661,26.597,69.331c12.373,16.676,26.951,29.011,31.636,31.23c1.394,0.66,3.344,1.326,5.807,1.983
	c-0.972-5.378-2.889-16.352-2.994-19.817c-0.078-2.563,0.67-4.73,1.33-6.644c0.606-1.755,1.129-3.271,0.966-4.813
	c-0.215-2.035-3.86-5.26-6.379-6.899c-0.742-0.482-1.079-1.396-0.828-2.245c0.252-0.849,1.032-1.432,1.917-1.432h29.115
	c0.885,0,1.665,0.583,1.917,1.432c0.251,0.849-0.085,1.763-0.828,2.245c-2.52,1.64-6.165,4.864-6.379,6.899
	c-0.162,1.541,0.361,3.058,0.966,4.813c0.66,1.913,1.408,4.08,1.33,6.644c-0.105,3.466-2.022,14.439-2.994,19.817
	c2.462-0.657,4.412-1.323,5.807-1.983c4.685-2.22,19.263-14.555,31.637-31.23c11.625-15.67,25.776-49.369,26.596-69.331l1.999,0.082
	l-1.999-0.082c0.814-19.803-2.172-65.737-4.208-71.591c-1.83-5.261-5.111-7.721-23.312-13.876
	c-17.814-6.026-44.799-5.833-45.069-5.832C101.522,4.003,101.389,4.002,101.154,4.002z M102.752,153.224
	c-10.52,0-19.402-0.876-19.491-0.885c-1.099-0.11-1.9-1.09-1.791-2.189c0.11-1.099,1.096-1.905,2.189-1.791
	c0.087,0.009,8.782,0.865,19.093,0.865c10.253,0,16.496-0.848,16.558-0.856c1.09-0.146,2.104,0.613,2.255,1.707
	c0.152,1.094-0.611,2.104-1.705,2.255C119.598,152.367,113.311,153.224,102.752,153.224z M111.222,147.178
	c-0.604,0-1.176-0.272-1.556-0.743l-8.144-10.084l-8.144,10.084c-0.386,0.479-0.952,0.736-1.585,0.743
	c-0.635-0.01-15.662-0.252-24.326-2.351c-1.349-0.326-2.489-0.596-3.46-0.825c-5.289-1.249-6.101-1.441-8.091-3.406
	c-1.866-1.845-10.269-16.247-12.784-20.59c-8.768-2.833-11.723-10.76-11.757-10.857c-0.373-1.04,0.167-2.185,1.207-2.559
	c1.036-0.372,2.178,0.164,2.555,1.199c0.14,0.379,3.529,9.21,14.584,9.21c0.477,0,0.954-0.013,1.431-0.036
	c0.073-0.008,0.157-0.012,0.219-0.012c11.45-0.656,22.939-7.801,23.059-7.877c0.708-0.444,1.619-0.402,2.282,0.106
	c0.664,0.508,0.94,1.376,0.695,2.175c-0.016,0.054-1.664,5.824,1.118,8.126c1.107,0.917,2.29,1.516,3.369,1.908
	c-0.186-0.795-0.164-1.591,0.217-2.309c0.455-0.856,1.499-1.822,3.881-1.528c3.438,0.417,5.709,3.068,7.534,5.199
	c0.927,1.082,1.885,2.201,2.595,2.506c2.235,0.956,5.011,0.834,5.247,0.821c0.052-0.004,0.089-0.034,0.156-0.006
	c0.057-0.05,0.103,0.001,0.153,0.006c0.244,0.013,3.01,0.138,5.25-0.822c0.708-0.304,1.667-1.423,2.594-2.505
	c1.825-2.131,4.096-4.782,7.534-5.199c2.381-0.296,3.426,0.672,3.881,1.528c0.381,0.718,0.404,1.514,0.217,2.309
	c1.078-0.392,2.261-0.991,3.368-1.908c2.806-2.321,1.135-8.068,1.118-8.126c-0.246-0.799,0.032-1.666,0.694-2.174
	c0.664-0.509,1.574-0.552,2.281-0.107c0.12,0.075,11.636,7.221,23.064,7.877c0.071,0,0.142,0.004,0.213,0.012
	c0.479,0.023,0.956,0.036,1.434,0.036c11.148,0,14.547-9.11,14.581-9.202c0.373-1.04,1.517-1.58,2.558-1.207
	c1.04,0.374,1.58,1.519,1.207,2.559c-0.035,0.098-2.989,8.024-11.757,10.857c-2.515,4.343-10.919,18.745-12.785,20.59
	c-1.99,1.965-2.803,2.157-8.091,3.407c-0.971,0.229-2.11,0.498-3.459,0.824c-8.665,2.099-23.691,2.341-24.327,2.351
	C111.242,147.178,111.232,147.178,111.222,147.178z M103.105,131.945l9.056,11.212c3.473-0.09,15.46-0.518,22.476-2.216
	c1.357-0.329,2.504-0.6,3.48-0.831c5.009-1.183,5.009-1.183,6.2-2.359c0.946-0.951,5.704-8.742,10.414-16.792
	c-0.655,0.039-1.342,0.047-2.026,0.035c-1.525,2.235-5.438,7.948-7.617,10.926c-2.958,4.042-6.319,4.329-7.212,4.329
	c-0.005,0-0.01,0-0.015,0c-0.934,0.069-8.703,0.641-12.424,0.894c-3.999,0.276-4.722,0.176-6.982-1.906l-0.35-0.321
	c-1.571-1.435-4.459-5.937-6.214-8.787c-1.047,1.194-2.097,2.253-3.389,2.807c-2.93,1.256-6.252,1.178-6.979,1.143
	c-0.728,0.035-4.049,0.112-6.979-1.142c-1.292-0.555-2.342-1.613-3.39-2.808c-1.755,2.851-4.643,7.353-6.214,8.787l-0.35,0.322
	c-2.259,2.081-2.984,2.18-6.982,1.905c-3.72-0.253-11.49-0.824-12.423-0.894c-0.005,0-0.009,0-0.015,0
	c-0.893,0-4.254-0.286-7.212-4.329c-2.179-2.978-6.092-8.69-7.617-10.926c-0.687,0.013-1.372,0.005-2.026-0.035
	c4.71,8.05,9.468,15.841,10.414,16.793c1.19,1.175,1.19,1.175,6.198,2.358c0.977,0.23,2.124,0.502,3.482,0.831
	c7.016,1.698,19.003,2.126,22.476,2.216l9.056-11.212c0.051-0.066,0.108-0.131,0.169-0.191c0.168-0.168,0.36-0.301,0.566-0.397
	c0.269-0.126,0.559-0.188,0.847-0.188h0.002c0.287,0,0.574,0.062,0.842,0.186c0.208,0.097,0.403,0.231,0.572,0.401
	C102.998,131.816,103.054,131.879,103.105,131.945z M116.509,125.966c1.674,2.629,3.438,5.214,4.293,5.995l0.363,0.333
	c1.142,1.053,1.144,1.052,4,0.857c3.956-0.27,12.494-0.898,12.494-0.898c0.09-0.007,0.18-0.008,0.268-0.002
	c0.029-0.002,1.981-0.026,3.933-2.693c1.658-2.267,4.419-6.264,6.265-8.955c-7.269-1.066-14.021-4.055-17.994-6.102
	c0.08,2.642-0.46,5.911-3.06,8.063c-4.443,3.677-9.621,3.569-9.835,3.563C116.982,126.118,116.736,126.063,116.509,125.966z
	 M65.253,132.246c0.042,0,0.077,0.002,0.133,0.007c0.001,0,8.539,0.629,12.494,0.898c2.856,0.193,2.857,0.194,4-0.857l0.363-0.333
	c0.855-0.781,2.62-3.366,4.293-5.994c-0.226,0.096-0.472,0.151-0.727,0.159c-0.22,0.008-5.393,0.114-9.835-3.563
	c-2.599-2.151-3.139-5.421-3.06-8.063c-3.973,2.047-10.726,5.035-17.993,6.102c1.845,2.691,4.606,6.688,6.265,8.955
	c1.952,2.667,3.865,2.697,3.985,2.69C65.204,132.246,65.229,132.246,65.253,132.246z M114.695,123.048
	c0.193,0.318,0.395,0.647,0.602,0.983c0.021-0.44,0.188-0.87,0.487-1.216c0.272-0.315,0.548-0.681,0.787-1.034
	C115.913,122.054,115.292,122.503,114.695,123.048z M86.475,121.783c0.241,0.356,0.517,0.724,0.786,1.033
	c0.3,0.346,0.466,0.775,0.487,1.216c0.208-0.337,0.409-0.665,0.602-0.983C87.754,122.503,87.133,122.054,86.475,121.783z
	 M97.132,114.477c-0.024,0-0.049,0-0.073-0.001c-1.104-0.04-1.966-0.967-1.927-2.07c0.168-4.692-0.415-35.184-2.981-42.149
	c-2.42-6.568-7.854-8.903-8.282-9.078c-0.15-0.058-0.296-0.134-0.434-0.23c-0.181-0.126-18.183-12.695-25.379-15.816
	c-6.955-3.018-13.44-0.735-16.177,1.088c-3.146,2.097-5.369,5.351-5.391,5.383c-0.519,0.766-1.492,1.076-2.358,0.752
	c-0.865-0.324-1.396-1.199-1.283-2.116c0.02-0.156,2.109-15.563,19.54-17.031c16.062-1.359,24.64,4.697,29.249,7.949l0.584,0.411
	l0,0c4.608,3.227,10.143,9.01,10.376,9.254c0.729,0.764,0.738,1.963,0.021,2.738l-4.819,5.215c2.457,1.578,6.115,4.698,8.105,10.1
	c3.15,8.549,3.304,41.501,3.226,43.675C99.09,113.628,98.203,114.477,97.132,114.477z M50.976,39.649
	c2.747,0,5.695,0.521,8.672,1.813c6.411,2.78,20.146,12.111,24.645,15.214l4.092-4.43c-1.885-1.877-5.458-5.301-8.459-7.401
	l-0.596-0.42c-4.486-3.164-11.995-8.467-26.607-7.231c-5.314,0.447-8.869,2.378-11.24,4.646
	C44.016,40.575,47.317,39.649,50.976,39.649z M137.773,81.663c-8.779,0-18.227-2.347-18.227-7.499s9.448-7.499,18.227-7.499
	c7.963,0,16.476,1.931,17.99,6.135c1.314,0.558,4.202,1.466,7.33,0.441c4.17-1.366,5.822-5.988,5.838-6.035
	c0.362-1.041,1.499-1.593,2.54-1.238c1.042,0.357,1.599,1.486,1.246,2.529c-0.09,0.267-2.28,6.548-8.378,8.545
	c-3.784,1.241-7.218,0.511-9.3-0.231C152.419,80.127,144.877,81.663,137.773,81.663z M123.548,74.164
	c0.259,0.979,4.957,3.499,14.225,3.499c9.293,0,13.993-2.534,14.227-3.507c0-0.005,0-0.009,0-0.014
	c-0.233-0.942-4.932-3.478-14.227-3.478C128.505,70.665,123.807,73.186,123.548,74.164z M65.273,81.663
	c-7.104,0-14.646-1.536-17.265-4.853c-2.082,0.742-5.517,1.47-9.301,0.231c-6.098-1.997-8.289-8.278-8.378-8.545
	c-0.354-1.046,0.206-2.182,1.252-2.536c1.044-0.351,2.176,0.204,2.533,1.245l0,0c0.016,0.046,1.668,4.669,5.838,6.035
	c3.131,1.024,6.019,0.112,7.33-0.441c1.514-4.204,10.027-6.135,17.99-6.135c8.778,0,18.227,2.347,18.227,7.499
	S74.051,81.663,65.273,81.663z M51.046,74.186c0.233,0.942,4.932,3.478,14.227,3.478c9.315,0,14.014-2.546,14.228-3.514
	c-0.214-0.938-4.913-3.484-14.228-3.484c-9.294,0-13.993,2.535-14.227,3.508C51.047,74.177,51.046,74.181,51.046,74.186z
	 M118.465,61.309c-0.542,0-1.079-0.22-1.47-0.643l-6.567-7.107c-0.717-0.775-0.707-1.974,0.021-2.738
	c0.233-0.244,5.768-6.027,10.376-9.254l0.584-0.411c4.609-3.251,13.192-9.301,29.249-7.949c17.431,1.468,19.521,16.875,19.54,17.031
	c0.112,0.917-0.418,1.792-1.283,2.116c-0.865,0.324-1.84,0.014-2.358-0.752c-0.021-0.03-2.269-3.302-5.391-5.383
	c-2.736-1.824-9.221-4.106-16.177-1.088c-7.196,3.121-25.198,15.69-25.378,15.816C119.264,61.191,118.863,61.309,118.465,61.309z
	 M114.661,52.245l4.093,4.429c4.499-3.102,18.233-12.433,24.644-15.213c6.896-2.99,13.64-1.851,18.077,0.334
	c-2.374-2.252-5.907-4.161-11.152-4.603c-14.609-1.238-22.12,4.066-26.607,7.231l-0.596,0.42
	C120.119,46.945,116.547,50.368,114.661,52.245z"/>
<g>
</g>
<g>
</g>
<g>
</g>
<g>
</g>
<g>
</g>
<g>
</g>
<g>
</g>
<g>
</g>
<g>
</g>
<g>
</g>
<g>
</g>
<g>
</g>
<g>
</g>
<g>
</g>
<g>
</g>
</svg>
