<?xml version="1.0" encoding="UTF-8"?>
<svg width="42px" height="42px" viewBox="0 0 42 42" version="1.1" xmlns="http://www.w3.org/2000/svg" xmlns:xlink="http://www.w3.org/1999/xlink">
    <!-- Generator: Sketch 51.3 (57544) - http://www.bohemiancoding.com/sketch -->
    <title>Payment</title>
    <desc>Created with Sketch.</desc>
    <defs></defs>
    <g id="Payment" stroke="none" stroke-width="1" fill="none" fill-rule="evenodd">
        <g id="Group-3" transform="translate(0.000000, 8.000000)" fill="#F07B1F">
            <g id="Group-30-Copy">
                <path d="M4.05882353,3 C3.47405144,3 3,3.47691407 3,4.06521739 L3,22.9347826 C3,23.5230859 3.47405144,24 4.05882353,24 L37.9411765,24 C38.5259486,24 39,23.5230859 39,22.9347826 L39,4.06521739 C39,3.47691407 38.5259486,3 37.9411765,3 L4.05882353,3 Z M4.2,5.35682609e-14 L37.8,5.35682609e-14 C40.1195959,5.31421581e-14 42,1.88040405 42,4.2 L42,22.8 C42,25.1195959 40.1195959,27 37.8,27 L4.2,27 C1.88040405,27 1.172247e-15,25.1195959 8.8817842e-16,22.8 L8.8817842e-16,4.2 C6.04109844e-16,1.88040405 1.88040405,5.39943638e-14 4.2,5.35682609e-14 Z" id="Rectangle-8" fill-rule="nonzero"></path>
                <rect id="Rectangle-9" x="0" y="9" width="42" height="3.24"></rect>
                <rect id="Rectangle-9-Copy" x="29" y="15" width="6" height="3"></rect>
            </g>
        </g>
    </g>
</svg>