<?xml version="1.0" encoding="UTF-8"?>
<svg width="40px" height="40px" viewBox="0 0 40 40" version="1.1" xmlns="http://www.w3.org/2000/svg" xmlns:xlink="http://www.w3.org/1999/xlink">
    <!-- Generator: Sketch 51.3 (57544) - http://www.bohemiancoding.com/sketch -->
    <title>ic/people</title>
    <desc>Created with Sketch.</desc>
    <defs></defs>
    <g id="ic/people" stroke="none" stroke-width="1" fill="none" fill-rule="evenodd">
        <g id="Group-8">
            <g id="Group-14-Copy">
                <rect id="Rectangle-4-Copy" x="0" y="0" width="40" height="40"></rect>
                <g id="Group-Copy" transform="translate(7.000000, 4.000000)" fill="#CFCFCF" fill-rule="nonzero">
                    <path d="M20.5,8 C20.5,8.82842712 19.8284271,9.5 19,9.5 C18.1715729,9.5 17.5,8.82842712 17.5,8 C17.5,5.51471863 15.4852814,3.5 13,3.5 C10.5147186,3.5 8.5,5.51471863 8.5,8 C8.5,10.4852814 10.5147186,12.5 13,12.5 C13.9581489,12.5 14.867408,12.2015354 15.6270489,11.6541269 C16.29915,11.169801 17.2366194,11.3220228 17.7209453,11.9941239 C18.2052713,12.6662249 18.0530495,13.6036943 17.3809484,14.0880202 C16.1147081,15.0004917 14.5929783,15.5 13,15.5 C8.85786438,15.5 5.5,12.1421356 5.5,8 C5.5,3.85786438 8.85786438,0.5 13,0.5 C17.1421356,0.5 20.5,3.85786438 20.5,8 Z" id="Oval-3"></path>
                    <path d="M3.79400959,27 L21,27 L22.2059904,27 L19.2893237,21 L6.71067626,21 L3.79400959,27 Z M4.0125727,19.6884219 C4.51464487,18.6555877 5.5622761,18 6.71067626,18 L19.2893237,18 C20.4377239,18 21.4853551,18.6555877 21.9874273,19.6884219 L24.904094,25.6884219 C25.6284586,27.1785433 25.00769,28.973739 23.5175685,29.6981036 C23.1088825,29.8967704 22.6604052,30 22.2059904,30 L3.79400959,30 C2.13715534,30 0.794009593,28.6568542 0.794009593,27 C0.794009593,26.5455852 0.897239215,26.0971079 1.09590603,25.6884219 L4.0125727,19.6884219 Z" id="Path-23"></path>
                </g>
            </g>
        </g>
    </g>
</svg>