<?xml version="1.0" encoding="UTF-8"?>
<svg width="42px" height="42px" viewBox="0 0 42 42" version="1.1" xmlns="http://www.w3.org/2000/svg" xmlns:xlink="http://www.w3.org/1999/xlink">
    <!-- Generator: Sketch 51.3 (57544) - http://www.bohemiancoding.com/sketch -->
    <title>Podbor</title>
    <desc>Created with Sketch.</desc>
    <defs></defs>
    <g id="Podbor" stroke="none" stroke-width="1" fill="none" fill-rule="evenodd">
        <path d="M19.5,33.5 L19.5,30.5 C20.1798905,30.5 20.8382692,30.3650676 21.4484835,30.1065404 C22.6371544,29.6029409 23.5926066,28.6505531 24.1001277,27.4635505 L26.8585667,28.6429632 C26.046179,30.5429952 24.5215744,32.06271 22.6187837,32.8688578 C21.639994,33.2835379 20.5838057,33.5 19.5,33.5 Z" id="Oval" fill="#F07B1F" fill-rule="nonzero"></path>
        <g id="Group" transform="translate(3.000000, 0.000000)">
            <path d="M12.0686148,11.8088465 C11.6243855,12.2850645 10.1225096,13.8799114 9.88849468,14.129866 C9.06475867,15.00971 8.44300773,15.6884774 7.8691889,16.3398099 C4.4697175,20.1984954 3,22.9527477 3,25.8709677 C3,33.121932 8.87806796,39 16.1290323,39 C23.3799966,39 29.2580645,33.121932 29.2580645,25.8709677 C29.2580645,22.947181 27.7920963,20.1889271 24.4063113,16.3373691 C23.8234329,15.6743057 23.1913284,14.9834795 22.3517172,14.0861757 C22.1243313,13.8431653 20.5866929,12.2094959 20.1299283,11.7193869 C18.5309608,10.0036931 17.2430288,8.54695956 16.1370009,7.16083766 C15.0159106,8.57158379 13.705275,10.0543312 12.0686148,11.8088465 Z M16.1290323,42 C7.22121371,42 0,34.7787863 0,25.8709677 C0,16.9631492 10.4277982,11.104068 16.1290323,2 C21.8842228,11.104068 32.2580645,16.9631492 32.2580645,25.8709677 C32.2580645,34.7787863 25.0368508,42 16.1290323,42 Z" id="Oval-2" fill="#F07B1F" fill-rule="nonzero"></path>
            <path d="M30.0388658,6.27484274 L27.4068002,7.0457569 L29.2679516,8.90690833 L30.0388658,6.27484274 Z M30.0388658,5.03886576 L29.2679516,2.40680017 L27.4068002,4.2679516 L30.0388658,5.03886576 Z M31.2748427,5.03886576 L33.9069083,4.2679516 L32.0457569,2.40680017 L31.2748427,5.03886576 Z M31.2748427,6.27484274 L32.0457569,8.90690833 L33.9069083,7.0457569 L31.2748427,6.27484274 Z" id="Star" stroke="#F07B1F" stroke-width="3" transform="translate(30.656854, 5.656854) rotate(45.000000) translate(-30.656854, -5.656854) "></path>
        </g>
    </g>
</svg>