<?xml version="1.0" encoding="UTF-8"?>
<svg width="42px" height="42px" viewBox="0 0 42 42" version="1.1" xmlns="http://www.w3.org/2000/svg" xmlns:xlink="http://www.w3.org/1999/xlink">
    <!-- Generator: Sketch 51.3 (57544) - http://www.bohemiancoding.com/sketch -->
    <title>QR-code</title>
    <desc>Created with Sketch.</desc>
    <defs></defs>
    <g id="QR-code" stroke="none" stroke-width="1" fill="none" fill-rule="evenodd">
        <g id="Group-2-Copy-4" transform="translate(4.000000, 4.000000)">
            <g id="Group">
                <rect id="Rectangle" stroke="#F27B20" stroke-width="3" x="1.5" y="1.5" width="9" height="9"></rect>
                <rect id="Rectangle-Copy-2" stroke="#F27B20" stroke-width="3" x="1.5" y="24.5" width="9" height="9"></rect>
                <rect id="Rectangle-Copy" stroke="#F27B20" stroke-width="3" x="24.5" y="1.5" width="9" height="9"></rect>
                <rect id="Rectangle-Copy-3" stroke="#F27B20" stroke-width="3" x="24.5" y="24.5" width="9" height="9"></rect>
                <path d="M16,16 L16,10 L19,10 L19,19 L0,19 L0,16 L16,16 Z M19,7 L16,7 L16,0 L19,0 L19,7 Z" id="Path-4" fill="#F27B20" fill-rule="nonzero"></path>
                <polygon id="Path-5" fill="#F27B20" fill-rule="nonzero" points="16 23 19 23 19 35 16 35"></polygon>
                <path d="M23,19 L23,16 L27,16 L27,19 L23,19 Z M31,19 L31,16 L35,16 L35,19 L31,19 Z" id="Path-6" fill="#F27B20" fill-rule="nonzero"></path>
            </g>
        </g>
    </g>
</svg>