<?xml version="1.0" encoding="UTF-8"?>
<svg width="42px" height="42px" viewBox="0 0 42 42" version="1.1" xmlns="http://www.w3.org/2000/svg" xmlns:xlink="http://www.w3.org/1999/xlink">
    <!-- Generator: Sketch 51.3 (57544) - http://www.bohemiancoding.com/sketch -->
    <title>Search</title>
    <desc>Created with Sketch.</desc>
    <defs></defs>
    <g id="Search" stroke="none" stroke-width="1" fill="none" fill-rule="evenodd">
        <g id="search" transform="translate(1.000000, 1.000000)">
            <rect id="Rectangle-7" x="0" y="0" width="40" height="40"></rect>
            <path d="M18,28 C23.5228475,28 28,23.5228475 28,18 C28,12.4771525 23.5228475,8 18,8 C12.4771525,8 8,12.4771525 8,18 C8,23.5228475 12.4771525,28 18,28 Z M28.8651221,26.8295882 L34.0459415,32.0104076 C34.8269901,32.7914562 34.8269901,34.0577862 34.0459415,34.8388348 C33.264893,35.6198833 31.998563,35.6198833 31.2175144,34.8388348 L25.9227803,29.5441007 C23.6698504,31.0932589 20.9408155,32 18,32 C10.2680135,32 4,25.7319865 4,18 C4,10.2680135 10.2680135,4 18,4 C25.7319865,4 32,10.2680135 32,18 C32,21.34757 30.8250833,24.4207235 28.8651221,26.8295882 Z" id="Combined-Shape-Copy" fill="#F07B1F" fill-rule="nonzero"></path>
        </g>
    </g>
</svg>